<?xml version="1.0" encoding="UTF-8"?>
<svg xmlns="http://www.w3.org/2000/svg" viewBox="-5 0 500 130">
  <defs>
    <style>
      .cls-1 {
        fill: #fff;
      }

      .cls-1, .cls-2 {
        stroke: #231f20;
        stroke-miterlimit: 10;
        stroke-width: 3px;
      }

      .cls-2 {
        fill: none;
      }

      .cls-3 {
        font-family: Impact, Impact;
        font-size: 72px;
      }

      .cls-3, .cls-4 {
        fill: #231f20;
      }
    </style>
  </defs>
  <g id="Layer_1" data-name="Layer 1">
    <path class="cls-4" d="M87.84,123.11l-.26-.09-.26-.09-37.03-12.78-37.03-12.78,.24-38.17,.03-4.52L.59,49.98,13.73,21.87v-.86s37.46,11.2,37.46,11.2l37.45,11.2,32.27-11.48,32.27-11.48,10.71,26.4-10.5,5.11,.04,6.92,.25,38.43-32.91,12.9-32.91,12.9ZM16.27,95.22l35.75,12.34,35.75,12.34,31.44-12.32,31.44-12.32-.23-35.29-.04-6.52,11.51-6.85-9.98-22.5-1.72,.59-30.74,10.93-30.74,10.93-36.01-10.76L16.71,25.04l-1.73-.54L3.24,48.41l13.28,7.07-.03,4.65-.22,35.09Z"/>
    <line class="cls-2" x1="88.68" y1="44.99" x2="87.81" y2="121.51"/>
  </g>
  <g id="Layer_2" data-name="Layer 2">
    <path class="cls-2" d="M152.16,21.51L86.49,1.55l-13.64,3.26L14.76,21.51,2.05,49.39l69.71,23.92,16.91-27.09c2.54,9.43,5.09,17.64,7.62,27.07,22.24-8.7,44.49-17.41,66.73-26.11-3.62-8.55-7.24-17.11-10.86-25.66Z"/>
    <line class="cls-1" x1="86.49" y1="1.55" x2="86.49" y2="43.6"/>
    <polyline class="cls-2" points="14.76 21.51 88.68 44.01 152.16 21.51"/>
    <text class="cls-3" transform="translate(170.54 97.14)"><tspan x="0" y="0">InventorEZ</tspan></text>
  </g>
</svg>
